<?xml version="1.0" encoding="utf-8"?>
<!-- Generator: Adobe Illustrator 16.0.0, SVG Export Plug-In . SVG Version: 6.00 Build 0)  -->
<!DOCTYPE svg PUBLIC "-//W3C//DTD SVG 1.1//EN" "http://www.w3.org/Graphics/SVG/1.1/DTD/svg11.dtd">
<svg version="1.1" id="Capa_1" xmlns="http://www.w3.org/2000/svg" xmlns:xlink="http://www.w3.org/1999/xlink" x="0px" y="0px"
	 width="60px" height="32px" viewBox="0 0 60 32" enable-background="new 0 0 60 32" xml:space="preserve">
<rect fill="#E8E7E5" width="60" height="32"/>
<g>
	<path fill-rule="evenodd" clip-rule="evenodd" fill="#211915" d="M11.613,13.235l3.75,4.772l-3.511,2.348
		c1.026,0.604,1.835,1.315,2.428,2.133s1.054,1.873,1.385,3.167c0.15,0.625,0.305,1.083,0.463,1.374
		c0.108,0.188,0.327,0.409,0.656,0.66l1.052-0.915l0.368,0.401l-2.643,2.253c-0.529-0.336-0.91-0.694-1.142-1.074
		c-0.167-0.256-0.472-1.117-0.914-2.582c-0.239-0.776-0.544-1.44-0.914-1.991c-0.37-0.552-0.761-0.967-1.175-1.246
		c-0.413-0.279-0.973-0.534-1.68-0.766l-0.723,0.483v4.526c0.656,0.219,1.348,0.527,2.076,0.928l1.141-1.006l0.351,0.397
		l-2.806,2.33c-1.033-0.519-1.929-0.883-2.689-1.092s-1.526-0.313-2.296-0.313c-0.967,0-1.898,0.159-2.793,0.477
		c-0.473,0.172-1,0.482-1.582,0.929l-0.301-0.26c0.72-0.919,1.445-1.595,2.175-2.028c0.73-0.435,1.626-0.727,2.687-0.879v-0.49
		c0-0.705-0.09-1.281-0.272-1.729s-0.512-0.917-0.992-1.407C3.235,22.144,2.73,21.742,2.2,21.43
		c-0.341-0.196-0.821-0.393-1.438-0.589v-0.446c0.588-0.22,1.311-0.621,2.168-1.206l2.047-1.382c0-0.934-0.065-1.603-0.196-2.004
		c-0.131-0.402-0.385-0.737-0.763-1.005c-0.377-0.269-0.799-0.402-1.264-0.402c-0.283,0-0.541,0.043-0.773,0.13
		s-0.519,0.249-0.86,0.487L0.762,14.75c0.566-0.581,1.076-0.975,1.53-1.182s1.015-0.311,1.682-0.311c0.748,0,1.37,0.149,1.868,0.446
		C6.339,14,6.711,14.406,6.958,14.92c0.146,0.312,0.229,0.761,0.251,1.348L11.613,13.235L11.613,13.235z M10.153,14.831
		l-1.138,0.784v6.051l4.257-2.847L10.153,14.831L10.153,14.831z M8.524,15.953l-1.316,0.906v9.468
		c0.438,0.065,0.877,0.164,1.316,0.295V15.953L8.524,15.953z M4.978,18.409l-2.409,1.643c0.456,0.218,0.834,0.436,1.134,0.653
		c0.3,0.218,0.725,0.581,1.274,1.09V18.409L4.978,18.409z"/>
	<path fill-rule="evenodd" clip-rule="evenodd" fill="#211915" d="M23.754,20.909l0.307,0.119c-0.303,0.467-0.495,0.823-0.577,1.071
		c-0.082,0.247-0.122,0.582-0.122,1.004v3.551c0,0.589,0.041,0.957,0.124,1.104s0.182,0.221,0.297,0.221
		c0.061,0,0.123-0.016,0.188-0.049c0.04-0.026,0.158-0.124,0.353-0.292l0.196,0.256l-1.781,1.533
		c-0.421-0.332-0.702-0.63-0.844-0.893s-0.221-0.63-0.238-1.101l-2.53,1.993c-0.949-0.778-1.423-1.546-1.423-2.303
		c0-0.507,0.102-0.982,0.307-1.427c0.271-0.585,0.739-1.267,1.403-2.045l-1.002-2.132l0.117-0.238
		c0.217,0.012,0.378,0.018,0.483,0.018c0.655,0,1.233-0.25,1.733-0.75c0.406,0.231,0.849,0.417,1.329,0.558
		c0.481,0.14,0.849,0.209,1.104,0.209c0.117,0,0.206-0.02,0.267-0.059S23.61,21.103,23.754,20.909L23.754,20.909z M21.658,22.481
		l-2.852-0.879l1.009,2.146l1.842,0.876V22.481L21.658,22.481z M21.658,24.981l-2.02-0.961c-0.312,0.678-0.467,1.271-0.467,1.782
		c0,0.898,0.407,1.64,1.221,2.223l1.266-0.998V24.981L21.658,24.981z"/>
	<path fill="#211915" d="M35.402,21.045l0.238,0.222c-0.312,0.276-0.521,0.498-0.628,0.664s-0.176,0.332-0.209,0.498
		s-0.049,0.506-0.049,1.021v3.453c0,0.454,0.044,0.755,0.134,0.904s0.174,0.225,0.253,0.225c0.11,0,0.302-0.108,0.576-0.324
		l0.195,0.256l-1.78,1.465c-0.417-0.321-0.688-0.587-0.812-0.798c-0.181-0.311-0.271-0.64-0.271-0.989v-5.012l-0.826-0.723
		l-1.321,1.228v4.505l0.63,0.674l-1.491,1.115l-1.457-1.115l0.613-0.674v-4.137c0-0.482-0.036-0.793-0.108-0.933
		c-0.1-0.188-0.343-0.413-0.727-0.674l-1.311,1.082v4.661l0.63,0.674l-1.457,1.115l-1.474-1.115l0.63-0.674v-4.457
		c0-0.462-0.057-0.795-0.172-1c-0.089-0.156-0.171-0.233-0.246-0.233c-0.089,0-0.271,0.107-0.545,0.323l-0.196-0.255l1.729-1.466
		c0.375,0.264,0.629,0.479,0.764,0.647c0.135,0.167,0.23,0.351,0.285,0.548c0.033,0.144,0.05,0.426,0.05,0.85l2.479-2.045
		c0.55,0.432,0.909,0.788,1.077,1.069c0.168,0.282,0.267,0.641,0.294,1.078l2.309-2.147l1.371,1.278L35.402,21.045L35.402,21.045z"
		/>
	<path fill-rule="evenodd" clip-rule="evenodd" fill="#211915" d="M38.035,17.706h1.057l-1.142,1.788h-0.357L38.035,17.706
		L38.035,17.706z M37.38,20.551l1.49,1.219l-0.664,0.639v4.539c0,0.479,0.04,0.79,0.119,0.935c0.08,0.145,0.162,0.218,0.246,0.218
		c0.06,0,0.115-0.016,0.164-0.044c0.07-0.041,0.215-0.157,0.434-0.349l0.195,0.256l-1.78,1.465
		c-0.443-0.316-0.729-0.615-0.856-0.896c-0.128-0.281-0.191-0.771-0.191-1.472v-4.652l-0.631-0.639L37.38,20.551L37.38,20.551z"/>
	<path fill="#211915" d="M44.194,20.551l1.252,1.508l-1.252,1.116l-1.042-1.309l-0.824,0.745v4.84l0.954,0.682l0.853-0.664
		l0.204,0.256l-2.121,1.703c-0.462-0.406-0.85-0.698-1.162-0.877c-0.313-0.178-0.655-0.317-1.027-0.418v-0.17
		c0.246-0.173,0.407-0.348,0.482-0.523c0.076-0.176,0.113-0.512,0.113-1.008v-3.413c0-0.429-0.047-0.715-0.142-0.857
		c-0.094-0.142-0.198-0.213-0.312-0.213c-0.124,0-0.293,0.119-0.509,0.357l-0.196-0.255l1.729-1.5
		c0.472,0.362,0.794,0.676,0.967,0.943c0.11,0.167,0.166,0.397,0.166,0.692L44.194,20.551L44.194,20.551z"/>
	<path fill-rule="evenodd" clip-rule="evenodd" fill="#211915" d="M48.722,20.551l2.352,2.74l-3.731,2.61v1.516l1.921,0.768
		l1.3-0.887l0.204,0.256l-2.701,1.874c-0.549-0.292-1.001-0.501-1.356-0.628c-0.354-0.126-0.859-0.264-1.514-0.411v-0.204
		c0.189-0.111,0.316-0.249,0.381-0.412c0.063-0.164,0.096-0.518,0.096-1.062v-4.763c0.521-0.188,0.953-0.36,1.297-0.516
		C47.218,21.316,47.802,21.022,48.722,20.551L48.722,20.551z M47.458,21.507l-0.116,0.061v3.776l2.193-1.534L47.458,21.507
		L47.458,21.507z"/>
	<path fill="#211915" d="M50.379,22.195l2.444-1.645l1.104,1.076c0.172,0.166,0.307,0.274,0.406,0.324s0.207,0.075,0.322,0.075
		c0.066,0,0.149-0.022,0.249-0.066l0.091,0.15l-2.477,2.24h0.231c0.689,0,1.256,0.214,1.699,0.643s0.665,0.943,0.665,1.545
		c0,0.351-0.091,0.689-0.273,1.018s-0.456,0.626-0.821,0.894c-0.265,0.194-0.739,0.47-1.422,0.826s-1.104,0.622-1.264,0.797
		c-0.16,0.176-0.24,0.369-0.24,0.58c0,0.2,0.065,0.37,0.197,0.51c0.132,0.139,0.305,0.208,0.52,0.208c0.076,0,0.188-0.02,0.337-0.06
		c0.077-0.017,0.144-0.025,0.198-0.025c0.071,0,0.13,0.021,0.177,0.066c0.047,0.044,0.07,0.096,0.07,0.156
		c0,0.077-0.03,0.141-0.091,0.189c-0.082,0.066-0.2,0.099-0.354,0.099c-0.412,0-0.742-0.112-0.989-0.337
		c-0.248-0.225-0.371-0.504-0.371-0.838c0-0.261,0.079-0.514,0.239-0.758c0.16-0.245,0.489-0.562,0.987-0.954
		c0.499-0.392,0.82-0.704,0.964-0.938c0.209-0.351,0.313-0.703,0.313-1.059c0-0.383-0.14-0.711-0.42-0.983
		c-0.281-0.272-0.639-0.408-1.073-0.408c-0.313,0-0.682,0.121-1.104,0.362l-0.18-0.162l2.806-2.506l-1.646-1.508l-1.089,0.734
		L50.379,22.195L50.379,22.195z"/>
	<path fill-rule="evenodd" clip-rule="evenodd" fill="#211915" d="M18.431,3.69l6.793-3.593c1.271,1.837,1.907,3.748,1.907,5.73
		c0,1.489-0.326,2.851-0.978,4.085c-0.884,1.678-2.666,3.908-5.346,6.689c-0.472-0.311-0.882-0.526-1.23-0.646
		s-0.711-0.179-1.089-0.179c-0.443,0-0.864,0.056-1.263,0.168s-0.908,0.331-1.525,0.657l-0.323-0.279
		c0.584-1.096,0.976-1.954,1.174-2.575c0.199-0.62,0.298-1.185,0.298-1.692c0-0.769-0.213-1.39-0.64-1.862
		c-0.427-0.472-0.915-0.708-1.464-0.708c-0.253,0-0.454,0.038-0.602,0.115s-0.291,0.217-0.428,0.42l-0.368-0.256
		c0.174-0.498,0.423-0.866,0.749-1.104c0.326-0.238,0.706-0.357,1.14-0.357c0.275,0,0.536,0.045,0.782,0.136
		s0.575,0.282,0.988,0.572c-0.073-2.456-0.578-4.396-1.517-5.821c-0.523-0.799-1.087-1.199-1.691-1.199
		c-0.306,0-0.553,0.105-0.742,0.316c-0.254,0.283-0.444,0.788-0.567,1.513l-0.413-0.123c0.043-0.844,0.167-1.517,0.37-2.02
		c0.203-0.502,0.502-0.892,0.898-1.168s0.814-0.415,1.257-0.415c0.667,0,1.339,0.268,2.014,0.805S17.894,2.369,18.431,3.69
		L18.431,3.69z M18.594,4.202C18.839,5,19.006,5.766,19.092,6.499c0.977,0.312,1.86,0.468,2.649,0.468
		c1.013,0,2.074-0.245,3.181-0.736c-0.058-0.783-0.21-1.537-0.456-2.262c-0.246-0.725-0.628-1.489-1.145-2.293L18.594,4.202
		L18.594,4.202z M24.923,6.766c-0.659,0.274-1.221,0.461-1.688,0.562C22.768,7.429,22.263,7.48,21.72,7.48
		c-0.826,0-1.69-0.156-2.595-0.468c0.029,0.35,0.043,0.612,0.043,0.787c0,0.707-0.116,1.515-0.347,2.425
		c0.435-0.138,0.848-0.239,1.239-0.304s0.757-0.098,1.098-0.098c0.956,0,1.952,0.23,2.988,0.691
		C24.621,9.133,24.88,7.884,24.923,6.766L24.923,6.766z M23.94,10.982c-0.639-0.273-1.148-0.454-1.529-0.54
		c-0.381-0.086-0.803-0.13-1.268-0.13c-0.363,0-0.75,0.038-1.161,0.114s-0.848,0.194-1.31,0.354
		c-0.23,0.767-0.487,1.444-0.768,2.031c-0.469,0.97-1.032,1.951-1.688,2.943c0.782-0.589,1.448-0.996,1.999-1.219
		c0.724-0.288,1.419-0.432,2.086-0.432c0.478,0,1.028,0.098,1.651,0.294c0.504-0.669,0.896-1.248,1.177-1.735
		C23.411,12.176,23.681,11.615,23.94,10.982L23.94,10.982z"/>
	<path fill-rule="evenodd" clip-rule="evenodd" fill="#211915" d="M29.174,4.88h1.057l-1.142,1.789h-0.358L29.174,4.88L29.174,4.88z
		 M28.519,7.726l1.491,1.218l-0.664,0.639v4.539c0,0.479,0.04,0.79,0.119,0.935s0.162,0.217,0.246,0.217
		c0.06,0,0.114-0.015,0.164-0.044c0.07-0.041,0.214-0.157,0.433-0.348l0.196,0.255l-1.781,1.465
		c-0.443-0.317-0.729-0.615-0.856-0.896c-0.127-0.281-0.191-0.771-0.191-1.472V9.583l-0.63-0.639L28.519,7.726L28.519,7.726z"/>
	<path fill="#211915" d="M36.287,7.726l1.542,1.235l-0.682,0.605v4.38c0,0.506,0.07,0.868,0.211,1.085
		c0.091,0.15,0.189,0.226,0.296,0.226c0.079,0,0.23-0.091,0.456-0.273l0.196,0.256l-1.781,1.363c-0.44-0.31-0.728-0.588-0.862-0.835
		c-0.136-0.247-0.208-0.638-0.219-1.175c-0.857,0.559-1.729,1.229-2.616,2.01c-0.543-0.422-0.899-0.793-1.067-1.112
		c-0.169-0.32-0.253-0.741-0.253-1.263V10.11c0-0.289-0.025-0.478-0.077-0.567c-0.09-0.156-0.212-0.233-0.365-0.233
		c-0.116,0-0.289,0.097-0.52,0.29l-0.196-0.255l1.952-1.619l1.542,1.235l-0.631,0.554v4.417c0,0.327,0.042,0.567,0.126,0.72
		c0.085,0.152,0.289,0.345,0.615,0.578l1.491-1.125V9.566l-0.597-0.605L36.287,7.726L36.287,7.726z"/>
	<path fill-rule="evenodd" clip-rule="evenodd" fill="#211915" d="M37.872,4.897l5.657,3.885c0.09-0.205,0.189-0.361,0.299-0.466
		c0.109-0.106,0.277-0.206,0.502-0.3v0.341c-0.113,0.15-0.188,0.286-0.222,0.408s-0.051,0.372-0.051,0.75v5.606
		c-0.708,0.265-1.235,0.496-1.581,0.692c-0.345,0.196-0.719,0.459-1.12,0.791c-0.653-0.434-1.232-0.75-1.736-0.948
		c-0.504-0.197-1.047-0.324-1.628-0.381V15.12c0.2-0.172,0.33-0.346,0.389-0.521s0.088-0.538,0.088-1.089V9.14
		c0.76-0.21,1.295-0.444,1.605-0.701l-2.202-1.513V4.897L37.872,4.897z M42.354,10.003l-1.711-1.175
		c-0.152,0.123-0.309,0.232-0.47,0.326v5.13l2.181,0.972V10.003L42.354,10.003z"/>
	<path fill-rule="evenodd" clip-rule="evenodd" fill="#211915" d="M50.406,8.083l0.307,0.119c-0.303,0.467-0.495,0.824-0.576,1.071
		c-0.082,0.247-0.122,0.582-0.122,1.004v3.551c0,0.589,0.041,0.957,0.124,1.104s0.182,0.221,0.297,0.221
		c0.061,0,0.123-0.016,0.188-0.049c0.04-0.027,0.157-0.124,0.353-0.292l0.196,0.256l-1.78,1.533
		c-0.421-0.332-0.702-0.63-0.845-0.893c-0.142-0.263-0.221-0.629-0.237-1.1l-2.53,1.993c-0.948-0.779-1.423-1.546-1.423-2.303
		c0-0.506,0.103-0.982,0.307-1.427c0.271-0.584,0.739-1.266,1.403-2.044l-1.003-2.132l0.117-0.238
		c0.217,0.012,0.378,0.017,0.483,0.017c0.655,0,1.233-0.25,1.733-0.75c0.405,0.231,0.848,0.417,1.328,0.557
		c0.481,0.14,0.85,0.209,1.104,0.209c0.117,0,0.206-0.02,0.267-0.059C50.159,8.394,50.262,8.277,50.406,8.083L50.406,8.083z
		 M48.311,9.656l-2.852-0.879l1.01,2.147l1.842,0.875V9.656L48.311,9.656z M48.311,12.156l-2.021-0.96
		c-0.312,0.677-0.467,1.271-0.467,1.781c0,0.899,0.406,1.64,1.221,2.223l1.267-0.998V12.156L48.311,12.156z"/>
</g>
</svg>
