<?xml version="1.0" encoding="utf-8"?>
<!-- Generator: Adobe Illustrator 16.0.0, SVG Export Plug-In . SVG Version: 6.00 Build 0)  -->
<!DOCTYPE svg PUBLIC "-//W3C//DTD SVG 1.1//EN" "http://www.w3.org/Graphics/SVG/1.1/DTD/svg11.dtd">
<svg version="1.1" id="Capa_1" xmlns="http://www.w3.org/2000/svg" xmlns:xlink="http://www.w3.org/1999/xlink" x="0px" y="0px"
	 width="260px" height="260px" viewBox="0 0 260 260" enable-background="new 0 0 260 260" xml:space="preserve">
<rect x="-19.851" y="-20.851" fill="#282828" width="300.851" height="301.701"/>
<g>
	<path fill="#FFFFFF" d="M70.759,120.809l14.028,17.85l-13.133,8.786c3.837,2.258,6.864,4.917,9.082,7.979
		c2.219,3.062,3.943,7.007,5.182,11.843c0.561,2.338,1.142,4.056,1.732,5.144c0.403,0.702,1.224,1.527,2.455,2.47l3.935-3.427
		l1.377,1.502l-9.887,8.428c-1.979-1.257-3.405-2.594-4.272-4.019c-0.625-0.957-1.766-4.18-3.419-9.659
		c-0.893-2.9-2.035-5.385-3.419-7.444c-1.383-2.068-2.846-3.617-4.395-4.662c-1.545-1.044-3.64-1.998-6.285-2.863l-2.703,1.805
		v16.928c2.453,0.822,5.041,1.973,7.765,3.475l4.269-3.763l1.313,1.486l-10.497,8.713c-3.863-1.939-7.215-3.303-10.059-4.084
		c-2.842-0.782-5.708-1.173-8.588-1.173c-3.616,0-7.1,0.599-10.448,1.786c-1.77,0.644-3.741,1.801-5.918,3.475l-1.127-0.972
		c2.694-3.438,5.407-5.966,8.137-7.584c2.73-1.63,6.083-2.722,10.052-3.292v-1.83c0-2.638-0.336-4.793-1.018-6.47
		s-1.916-3.43-3.711-5.264c-1.785-1.834-3.673-3.339-5.655-4.508c-1.277-0.73-3.072-1.469-5.379-2.203v-1.669
		c2.199-0.822,4.904-2.324,8.11-4.508l7.657-5.173c0-3.493-0.243-5.995-0.732-7.495c-0.491-1.505-1.441-2.758-2.855-3.761
		c-1.41-1.006-2.99-1.503-4.729-1.503c-1.058,0-2.023,0.161-2.891,0.486s-1.942,0.932-3.217,1.823l-1.342-0.984
		c2.117-2.173,4.024-3.647,5.723-4.422c1.698-0.774,3.797-1.164,6.292-1.164c2.798,0,5.124,0.559,6.987,1.669
		c1.859,1.11,3.251,2.63,4.175,4.552c0.546,1.167,0.857,2.848,0.939,5.041L70.759,120.809L70.759,120.809z M65.297,126.78
		l-4.256,2.934v22.634l15.924-10.652L65.297,126.78L65.297,126.78z M59.204,130.977l-4.923,3.39v35.417
		c1.639,0.244,3.281,0.613,4.923,1.103V130.977L59.204,130.977z M45.939,140.165l-9.012,6.145c1.706,0.814,3.12,1.633,4.243,2.443
		c1.122,0.814,2.712,2.174,4.766,4.077v-12.665H45.939z"/>
	<path fill="#FFFFFF" d="M116.176,149.517l1.149,0.442c-1.134,1.749-1.852,3.083-2.159,4.011c-0.307,0.921-0.457,2.177-0.457,3.755
		v13.283c0,2.203,0.153,3.58,0.464,4.128s0.681,0.825,1.112,0.825c0.227,0,0.46-0.059,0.703-0.183c0.15-0.095,0.59-0.46,1.321-1.088
		l0.732,0.957l-6.663,5.731c-1.575-1.238-2.625-2.356-3.156-3.339c-0.532-0.982-0.828-2.356-0.89-4.117l-9.465,7.452
		c-3.549-2.908-5.322-5.782-5.322-8.614c0-1.896,0.382-3.675,1.149-5.341c1.014-2.185,2.763-4.734,5.248-7.649l-3.748-7.971
		l0.437-0.892c0.812,0.044,1.416,0.066,1.808,0.066c2.45,0,4.612-0.936,6.482-2.806c1.518,0.862,3.175,1.56,4.972,2.089
		c1.799,0.522,3.174,0.782,4.129,0.782c0.437,0,0.769-0.077,0.998-0.223C115.248,150.671,115.637,150.243,116.176,149.517
		L116.176,149.517z M108.336,155.395l-10.668-3.288l3.773,8.029l6.892,3.277v-8.019H108.336z M108.336,164.746l-7.556-3.595
		c-1.167,2.539-1.748,4.757-1.748,6.667c0,3.361,1.523,6.134,4.568,8.318l4.736-3.733V164.746L108.336,164.746z"/>
	<path fill="#FFFFFF" d="M159.75,150.024l0.891,0.833c-1.169,1.03-1.95,1.863-2.353,2.484c-0.401,0.621-0.657,1.241-0.781,1.862
		s-0.183,1.893-0.183,3.817v12.914c0,1.702,0.164,2.827,0.504,3.383c0.336,0.559,0.65,0.844,0.942,0.844
		c0.413,0,1.133-0.405,2.155-1.213l0.73,0.957l-6.659,5.483c-1.56-1.205-2.575-2.199-3.036-2.988
		c-0.679-1.161-1.016-2.393-1.016-3.696v-18.752l-3.09-2.703l-4.939,4.592v16.855l2.356,2.521l-5.578,4.172l-5.45-4.172l2.294-2.521
		v-15.479c0-1.801-0.136-2.966-0.405-3.488c-0.377-0.705-1.282-1.545-2.722-2.521l-4.903,4.048v17.433l2.358,2.521l-5.451,4.172
		l-5.514-4.172l2.356-2.521v-16.673c0-1.725-0.212-2.974-0.643-3.741c-0.333-0.584-0.64-0.869-0.921-0.869
		c-0.332,0-1.014,0.401-2.038,1.205l-0.732-0.949l6.468-5.487c1.403,0.986,2.353,1.79,2.856,2.422
		c0.506,0.625,0.86,1.312,1.067,2.05c0.124,0.54,0.186,1.593,0.186,3.178l9.271-7.649c2.061,1.615,3.405,2.948,4.033,4
		c0.628,1.056,0.997,2.4,1.096,4.033l8.64-8.033l5.129,4.782L159.75,150.024L159.75,150.024z"/>
	<path fill="#FFFFFF" d="M169.599,137.534h3.952l-4.271,6.689h-1.337L169.599,137.534L169.599,137.534z M167.147,148.176l5.574,4.56
		l-2.484,2.393v16.979c0,1.79,0.15,2.955,0.446,3.496c0.296,0.54,0.603,0.818,0.917,0.818c0.227,0,0.431-0.062,0.613-0.168
		c0.263-0.154,0.808-0.585,1.626-1.305l0.727,0.957l-6.656,5.483c-1.658-1.184-2.725-2.302-3.199-3.354
		c-0.482-1.052-0.717-2.886-0.717-5.509v-17.399l-2.359-2.393L167.147,148.176L167.147,148.176z"/>
	<path fill="#FFFFFF" d="M192.635,148.176l4.684,5.641l-4.684,4.176l-3.895-4.896l-3.083,2.787v18.104l3.569,2.55l3.188-2.483
		l0.764,0.957l-7.935,6.371c-1.728-1.521-3.178-2.608-4.343-3.281c-1.173-0.664-2.455-1.184-3.844-1.563v-0.636
		c0.921-0.646,1.52-1.3,1.805-1.958c0.281-0.657,0.42-1.914,0.42-3.77v-12.764c0-1.607-0.175-2.674-0.529-3.208
		c-0.351-0.533-0.741-0.796-1.169-0.796c-0.464,0-1.096,0.445-1.903,1.337l-0.734-0.957l6.466-5.611
		c1.769,1.355,2.974,2.528,3.62,3.529c0.413,0.624,0.621,1.482,0.621,2.586L192.635,148.176L192.635,148.176z"/>
	<path fill="#FFFFFF" d="M209.578,148.176l8.796,10.251l-13.958,9.761v5.673l7.186,2.875l4.866-3.32l0.76,0.961l-10.104,7.007
		c-2.054-1.089-3.741-1.874-5.07-2.35c-1.323-0.471-3.215-0.986-5.663-1.538v-0.76c0.709-0.416,1.184-0.935,1.425-1.541
		c0.234-0.614,0.358-1.94,0.358-3.975v-17.816c1.95-0.705,3.565-1.348,4.852-1.933C203.948,151.04,206.133,149.937,209.578,148.176
		L209.578,148.176z M204.847,151.752l-0.435,0.23v14.123l8.205-5.735L204.847,151.752L204.847,151.752z"/>
	<path fill="#FFFFFF" d="M215.773,154.328l9.144-6.156l4.128,4.026c0.646,0.621,1.15,1.026,1.52,1.213
		c0.369,0.186,0.774,0.281,1.202,0.281c0.248,0,0.562-0.084,0.935-0.249l0.34,0.562l-9.268,8.381h0.866
		c2.575,0,4.697,0.796,6.356,2.403c1.654,1.604,2.487,3.529,2.487,5.779c0,1.315-0.344,2.579-1.022,3.807
		c-0.68,1.23-1.706,2.345-3.069,3.346c-0.993,0.724-2.769,1.758-5.318,3.091c-2.558,1.33-4.132,2.323-4.73,2.981
		c-0.6,0.657-0.899,1.381-0.899,2.17c0,0.745,0.245,1.381,0.738,1.906c0.493,0.519,1.144,0.778,1.947,0.778
		c0.285,0,0.701-0.077,1.257-0.223c0.292-0.066,0.54-0.095,0.745-0.095c0.263,0,0.481,0.08,0.657,0.248
		c0.176,0.161,0.263,0.358,0.263,0.581c0,0.288-0.109,0.529-0.34,0.705c-0.307,0.248-0.748,0.372-1.325,0.372
		c-1.542,0-2.776-0.416-3.697-1.26c-0.928-0.844-1.389-1.886-1.389-3.135c0-0.976,0.296-1.925,0.892-2.838
		c0.6-0.914,1.834-2.101,3.697-3.565c1.863-1.469,3.064-2.635,3.602-3.508c0.782-1.314,1.173-2.63,1.173-3.963
		c0-1.436-0.522-2.66-1.571-3.679c-1.052-1.016-2.393-1.527-4.015-1.527c-1.169,0-2.55,0.453-4.128,1.355l-0.672-0.603l10.491-9.378
		l-6.155-5.641l-4.073,2.744L215.773,154.328L215.773,154.328z"/>
	<path fill="#FFFFFF" d="M96.265,85.104l25.411-13.439c4.754,6.871,7.133,14.019,7.133,21.435c0,5.569-1.218,10.663-3.659,15.281
		c-3.306,6.276-9.973,14.618-19.997,25.024c-1.766-1.166-3.3-1.97-4.601-2.419c-1.302-0.449-2.659-0.67-4.075-0.67
		c-1.657,0-3.231,0.21-4.724,0.628c-1.492,0.422-3.397,1.24-5.704,2.461l-1.209-1.045c2.185-4.101,3.651-7.31,4.391-9.633
		c0.745-2.32,1.116-4.433,1.116-6.329c0-2.877-0.796-5.2-2.395-6.966c-1.597-1.765-3.423-2.648-5.476-2.648
		c-0.946,0-1.699,0.142-2.252,0.431c-0.553,0.287-1.088,0.811-1.602,1.571l-1.375-0.957c0.65-1.863,1.582-3.24,2.802-4.13
		c1.218-0.891,2.64-1.337,4.263-1.337c1.03,0,2.006,0.17,2.926,0.51c0.92,0.341,2.15,1.056,3.695,2.139
		c-0.272-9.186-2.161-16.442-5.675-21.774c-1.956-2.988-4.066-4.484-6.325-4.484c-1.144,0-2.068,0.393-2.774,1.182
		c-0.952,1.058-1.663,2.948-2.123,5.659l-1.543-0.458c0.161-3.158,0.625-5.675,1.383-7.558c0.76-1.877,1.879-3.335,3.359-4.369
		c1.483-1.032,3.046-1.552,4.703-1.552c2.495,0,5.008,1.002,7.535,3.012C91.996,76.672,94.255,80.163,96.265,85.104L96.265,85.104z
		 M96.873,87.02c0.917,2.985,1.542,5.851,1.863,8.592c3.655,1.167,6.959,1.75,9.911,1.75c3.789,0,7.757-0.915,11.898-2.752
		c-0.218-2.928-0.786-5.75-1.706-8.462c-0.919-2.71-2.349-5.569-4.283-8.577L96.873,87.02L96.873,87.02z M120.548,96.611
		c-2.464,1.025-4.566,1.724-6.314,2.103c-1.746,0.378-3.635,0.568-5.666,0.568c-3.09,0-6.323-0.583-9.708-1.75
		c0.108,1.308,0.161,2.289,0.161,2.943c0,2.645-0.435,5.667-1.299,9.072c1.627-0.517,3.173-0.895,4.636-1.138
		c1.463-0.243,2.831-0.366,4.108-0.366c3.574,0,7.301,0.859,11.177,2.585C119.419,105.464,120.388,100.792,120.548,96.611
		L120.548,96.611z M116.872,112.381c-2.391-1.021-4.294-1.699-5.719-2.021c-1.427-0.321-3.005-0.486-4.744-0.486
		c-1.359,0-2.806,0.143-4.344,0.426c-1.538,0.285-3.172,0.727-4.9,1.326c-0.86,2.868-1.821,5.401-2.873,7.597
		c-1.753,3.629-3.859,7.299-6.314,11.008c2.926-2.203,5.417-3.726,7.478-4.559c2.708-1.078,5.308-1.616,7.803-1.616
		c1.788,0,3.847,0.367,6.177,1.1c1.885-2.502,3.352-4.669,4.402-6.49C114.894,116.847,115.903,114.75,116.872,112.381
		L116.872,112.381z"/>
	<path fill="#FFFFFF" d="M136.45,89.555h3.953l-4.271,6.693h-1.341L136.45,89.555L136.45,89.555z M134.003,100.202l5.574,4.556
		l-2.484,2.391v16.98c0,1.792,0.154,2.955,0.446,3.498c0.296,0.542,0.606,0.811,0.92,0.811c0.227,0,0.428-0.057,0.614-0.165
		c0.263-0.153,0.8-0.586,1.622-1.302l0.73,0.956l-6.663,5.478c-1.658-1.184-2.726-2.3-3.2-3.351
		c-0.475-1.052-0.716-2.884-0.716-5.507v-17.398l-2.356-2.391L134.003,100.202L134.003,100.202z"/>
	<path fill="#FFFFFF" d="M163.06,100.202l5.768,4.62l-2.553,2.263v16.384c0,1.894,0.263,3.248,0.789,4.061
		c0.343,0.561,0.708,0.844,1.11,0.844c0.292,0,0.858-0.34,1.702-1.021l0.738,0.959l-6.664,5.1c-1.647-1.162-2.725-2.199-3.226-3.125
		c-0.508-0.924-0.777-2.388-0.821-4.396c-3.204,2.091-6.466,4.597-9.783,7.521c-2.031-1.578-3.361-2.968-3.989-4.161
		c-0.636-1.198-0.95-2.773-0.95-4.726v-15.405c0-1.082-0.095-1.788-0.284-2.121c-0.34-0.583-0.797-0.872-1.366-0.872
		c-0.435,0-1.082,0.364-1.947,1.085l-0.734-0.955l7.303-6.055l5.768,4.62l-2.359,2.073v16.522c0,1.222,0.157,2.121,0.471,2.692
		c0.318,0.57,1.082,1.292,2.302,2.163l5.578-4.208v-16.98l-2.235-2.263L163.06,100.202L163.06,100.202z"/>
	<path fill="#FFFFFF" d="M168.988,89.619l21.162,14.534c0.336-0.767,0.705-1.352,1.118-1.745c0.409-0.396,1.037-0.771,1.878-1.122
		v1.275c-0.424,0.561-0.702,1.07-0.833,1.527c-0.124,0.457-0.19,1.392-0.19,2.806v20.97c-2.645,0.99-4.617,1.856-5.91,2.588
		c-1.294,0.732-2.692,1.715-4.194,2.957c-2.44-1.622-4.606-2.804-6.491-3.543c-1.885-0.738-3.916-1.213-6.09-1.427v-0.579
		c0.745-0.643,1.234-1.295,1.454-1.949c0.219-0.656,0.329-2.013,0.329-4.075v-16.346c2.842-0.786,4.844-1.663,6.005-2.623
		l-8.237-5.661V89.619L168.988,89.619z M185.752,108.719l-6.4-4.395c-0.565,0.46-1.154,0.868-1.757,1.218v19.191l8.157,3.635
		V108.719L185.752,108.719z"/>
	<path fill="#FFFFFF" d="M215.876,101.537l1.146,0.446c-1.132,1.746-1.852,3.081-2.155,4.005c-0.307,0.924-0.453,2.177-0.453,3.755
		v13.285c0,2.203,0.153,3.58,0.461,4.129c0.313,0.55,0.679,0.826,1.11,0.826c0.229,0,0.46-0.058,0.705-0.183
		c0.149-0.101,0.588-0.464,1.318-1.092l0.734,0.957l-6.659,5.738c-1.571-1.242-2.623-2.358-3.16-3.343
		c-0.53-0.985-0.826-2.353-0.888-4.115l-9.462,7.458c-3.547-2.917-5.326-5.785-5.326-8.618c0-1.892,0.388-3.673,1.151-5.337
		c1.012-2.185,2.765-4.736,5.249-7.646l-3.755-7.977l0.438-0.89c0.811,0.044,1.417,0.064,1.808,0.064
		c2.451,0,4.614-0.935,6.484-2.806c1.513,0.864,3.171,1.56,4.968,2.084c1.798,0.522,3.179,0.782,4.129,0.782
		c0.438,0,0.771-0.075,1-0.221C214.951,102.701,215.335,102.262,215.876,101.537L215.876,101.537z M208.036,107.422l-10.667-3.29
		l3.777,8.032l6.89,3.273V107.422L208.036,107.422z M208.036,116.774l-7.559-3.593c-1.165,2.534-1.746,4.754-1.746,6.663
		c0,3.363,1.517,6.136,4.566,8.316l4.738-3.733V116.774L208.036,116.774z"/>
</g>
</svg>
